<mxfile host="app.diagrams.net" modified="2022-05-16T08:54:02.310Z" agent="5.0 (Windows NT 10.0; Win64; x64) AppleWebKit/537.36 (KHTML, like Gecko) Chrome/101.0.4951.67 Safari/537.36" etag="PLufbbrEfWtVD2OVDh54" version="18.0.4" type="github">
  <diagram id="q9GEcScXyjQXlS6VjjTK" name="Page-1">
    <mxGraphModel dx="1038" dy="547" grid="1" gridSize="10" guides="1" tooltips="1" connect="1" arrows="1" fold="1" page="1" pageScale="1" pageWidth="827" pageHeight="1169" math="0" shadow="0">
      <root>
        <mxCell id="0" />
        <mxCell id="1" parent="0" />
        <mxCell id="ftm3P9XVFiQLWpEqlPqK-1" value="&lt;h2&gt;&lt;br&gt;&lt;/h2&gt;" style="whiteSpace=wrap;html=1;" parent="1" vertex="1">
          <mxGeometry x="160" y="100" width="50" height="300" as="geometry" />
        </mxCell>
        <mxCell id="ftm3P9XVFiQLWpEqlPqK-2" value="&lt;h2&gt;&lt;br&gt;&lt;/h2&gt;" style="whiteSpace=wrap;html=1;" parent="1" vertex="1">
          <mxGeometry x="520" y="100" width="50" height="300" as="geometry" />
        </mxCell>
        <mxCell id="ftm3P9XVFiQLWpEqlPqK-3" value="" style="endArrow=classic;html=1;rounded=0;fontFamily=Times New Roman;" parent="1" edge="1">
          <mxGeometry width="50" height="50" relative="1" as="geometry">
            <mxPoint x="110" y="160" as="sourcePoint" />
            <mxPoint x="160" y="160" as="targetPoint" />
          </mxGeometry>
        </mxCell>
        <mxCell id="ftm3P9XVFiQLWpEqlPqK-4" value="" style="endArrow=classic;html=1;rounded=0;fontFamily=Times New Roman;" parent="1" edge="1">
          <mxGeometry width="50" height="50" relative="1" as="geometry">
            <mxPoint x="110" y="200" as="sourcePoint" />
            <mxPoint x="160" y="200" as="targetPoint" />
          </mxGeometry>
        </mxCell>
        <mxCell id="ftm3P9XVFiQLWpEqlPqK-5" value="" style="endArrow=classic;html=1;rounded=0;fontFamily=Times New Roman;" parent="1" edge="1">
          <mxGeometry width="50" height="50" relative="1" as="geometry">
            <mxPoint x="110" y="240" as="sourcePoint" />
            <mxPoint x="160" y="240" as="targetPoint" />
          </mxGeometry>
        </mxCell>
        <mxCell id="ftm3P9XVFiQLWpEqlPqK-6" value="" style="endArrow=classic;html=1;rounded=0;fontFamily=Times New Roman;" parent="1" edge="1">
          <mxGeometry width="50" height="50" relative="1" as="geometry">
            <mxPoint x="110" y="360" as="sourcePoint" />
            <mxPoint x="160" y="360" as="targetPoint" />
          </mxGeometry>
        </mxCell>
        <mxCell id="ftm3P9XVFiQLWpEqlPqK-7" value="" style="endArrow=none;dashed=1;html=1;dashPattern=1 3;strokeWidth=2;rounded=0;fontFamily=Times New Roman;" parent="1" edge="1">
          <mxGeometry width="50" height="50" relative="1" as="geometry">
            <mxPoint x="140" y="320" as="sourcePoint" />
            <mxPoint x="140" y="280" as="targetPoint" />
          </mxGeometry>
        </mxCell>
        <mxCell id="ftm3P9XVFiQLWpEqlPqK-8" value="X&lt;sub&gt;1&lt;/sub&gt;" style="text;html=1;align=center;verticalAlign=middle;resizable=0;points=[];autosize=1;strokeColor=none;fillColor=none;fontFamily=Times New Roman;" parent="1" vertex="1">
          <mxGeometry x="105" y="140" width="30" height="20" as="geometry" />
        </mxCell>
        <mxCell id="ftm3P9XVFiQLWpEqlPqK-9" value="X&lt;span style=&quot;font-size: 10px&quot;&gt;&lt;sub&gt;2&lt;/sub&gt;&lt;/span&gt;" style="text;html=1;align=center;verticalAlign=middle;resizable=0;points=[];autosize=1;strokeColor=none;fillColor=none;fontFamily=Times New Roman;" parent="1" vertex="1">
          <mxGeometry x="105" y="180" width="30" height="20" as="geometry" />
        </mxCell>
        <mxCell id="ftm3P9XVFiQLWpEqlPqK-10" value="X&lt;span style=&quot;font-size: 10px&quot;&gt;&lt;sub&gt;3&lt;/sub&gt;&lt;/span&gt;" style="text;html=1;align=center;verticalAlign=middle;resizable=0;points=[];autosize=1;strokeColor=none;fillColor=none;fontFamily=Times New Roman;" parent="1" vertex="1">
          <mxGeometry x="105" y="220" width="30" height="20" as="geometry" />
        </mxCell>
        <mxCell id="ftm3P9XVFiQLWpEqlPqK-11" value="X&lt;span style=&quot;font-size: 10px&quot;&gt;&lt;sub&gt;N&lt;/sub&gt;&lt;/span&gt;" style="text;html=1;align=center;verticalAlign=middle;resizable=0;points=[];autosize=1;strokeColor=none;fillColor=none;fontFamily=Times New Roman;" parent="1" vertex="1">
          <mxGeometry x="110" y="340" width="30" height="20" as="geometry" />
        </mxCell>
        <mxCell id="ftm3P9XVFiQLWpEqlPqK-13" value="" style="endArrow=none;html=1;rounded=0;fontFamily=Times New Roman;" parent="1" edge="1">
          <mxGeometry width="50" height="50" relative="1" as="geometry">
            <mxPoint x="210" y="159" as="sourcePoint" />
            <mxPoint x="260" y="159" as="targetPoint" />
          </mxGeometry>
        </mxCell>
        <mxCell id="ftm3P9XVFiQLWpEqlPqK-14" value="" style="endArrow=none;html=1;rounded=0;fontFamily=Times New Roman;" parent="1" edge="1">
          <mxGeometry width="50" height="50" relative="1" as="geometry">
            <mxPoint x="260" y="159" as="sourcePoint" />
            <mxPoint x="260" y="149" as="targetPoint" />
          </mxGeometry>
        </mxCell>
        <mxCell id="ftm3P9XVFiQLWpEqlPqK-15" value="" style="triangle;whiteSpace=wrap;html=1;fontFamily=Times New Roman;direction=south;" parent="1" vertex="1">
          <mxGeometry x="250" y="129" width="20" height="20" as="geometry" />
        </mxCell>
        <mxCell id="ftm3P9XVFiQLWpEqlPqK-16" value="" style="endArrow=none;html=1;rounded=0;fontFamily=Times New Roman;" parent="1" edge="1">
          <mxGeometry width="50" height="50" relative="1" as="geometry">
            <mxPoint x="210" y="199" as="sourcePoint" />
            <mxPoint x="260" y="199" as="targetPoint" />
          </mxGeometry>
        </mxCell>
        <mxCell id="ftm3P9XVFiQLWpEqlPqK-17" value="" style="endArrow=none;html=1;rounded=0;fontFamily=Times New Roman;" parent="1" edge="1">
          <mxGeometry width="50" height="50" relative="1" as="geometry">
            <mxPoint x="260" y="199" as="sourcePoint" />
            <mxPoint x="260" y="189" as="targetPoint" />
          </mxGeometry>
        </mxCell>
        <mxCell id="ftm3P9XVFiQLWpEqlPqK-18" value="" style="triangle;whiteSpace=wrap;html=1;fontFamily=Times New Roman;direction=south;" parent="1" vertex="1">
          <mxGeometry x="250" y="169" width="20" height="20" as="geometry" />
        </mxCell>
        <mxCell id="ftm3P9XVFiQLWpEqlPqK-19" value="" style="endArrow=none;html=1;rounded=0;fontFamily=Times New Roman;" parent="1" edge="1">
          <mxGeometry width="50" height="50" relative="1" as="geometry">
            <mxPoint x="210" y="239" as="sourcePoint" />
            <mxPoint x="260" y="239" as="targetPoint" />
          </mxGeometry>
        </mxCell>
        <mxCell id="ftm3P9XVFiQLWpEqlPqK-20" value="" style="endArrow=none;html=1;rounded=0;fontFamily=Times New Roman;" parent="1" edge="1">
          <mxGeometry width="50" height="50" relative="1" as="geometry">
            <mxPoint x="260" y="239" as="sourcePoint" />
            <mxPoint x="260" y="229" as="targetPoint" />
          </mxGeometry>
        </mxCell>
        <mxCell id="ftm3P9XVFiQLWpEqlPqK-21" value="" style="triangle;whiteSpace=wrap;html=1;fontFamily=Times New Roman;direction=south;" parent="1" vertex="1">
          <mxGeometry x="250" y="209" width="20" height="20" as="geometry" />
        </mxCell>
        <mxCell id="ftm3P9XVFiQLWpEqlPqK-22" value="" style="endArrow=none;html=1;rounded=0;fontFamily=Times New Roman;" parent="1" edge="1">
          <mxGeometry width="50" height="50" relative="1" as="geometry">
            <mxPoint x="210" y="359" as="sourcePoint" />
            <mxPoint x="260" y="359" as="targetPoint" />
          </mxGeometry>
        </mxCell>
        <mxCell id="ftm3P9XVFiQLWpEqlPqK-23" value="" style="endArrow=none;html=1;rounded=0;fontFamily=Times New Roman;" parent="1" edge="1">
          <mxGeometry width="50" height="50" relative="1" as="geometry">
            <mxPoint x="260" y="359" as="sourcePoint" />
            <mxPoint x="260" y="349" as="targetPoint" />
          </mxGeometry>
        </mxCell>
        <mxCell id="ftm3P9XVFiQLWpEqlPqK-24" value="" style="triangle;whiteSpace=wrap;html=1;fontFamily=Times New Roman;direction=south;" parent="1" vertex="1">
          <mxGeometry x="250" y="329" width="20" height="20" as="geometry" />
        </mxCell>
        <mxCell id="ftm3P9XVFiQLWpEqlPqK-26" value="" style="endArrow=none;dashed=1;html=1;dashPattern=1 3;strokeWidth=2;rounded=0;fontFamily=Times New Roman;" parent="1" edge="1">
          <mxGeometry width="50" height="50" relative="1" as="geometry">
            <mxPoint x="259.65999999999997" y="320" as="sourcePoint" />
            <mxPoint x="259.65999999999997" y="280" as="targetPoint" />
          </mxGeometry>
        </mxCell>
        <mxCell id="ftm3P9XVFiQLWpEqlPqK-27" value="" style="ellipse;whiteSpace=wrap;html=1;align=center;dashed=1;fontFamily=Times New Roman;direction=south;" parent="1" vertex="1">
          <mxGeometry x="290" y="100" width="150" height="300" as="geometry" />
        </mxCell>
        <mxCell id="ftm3P9XVFiQLWpEqlPqK-28" value="" style="strokeWidth=2;html=1;shape=mxgraph.flowchart.annotation_1;align=left;pointerEvents=1;fontFamily=Times New Roman;" parent="1" vertex="1">
          <mxGeometry x="310" y="205" width="10" height="90" as="geometry" />
        </mxCell>
        <mxCell id="ftm3P9XVFiQLWpEqlPqK-29" value="" style="strokeWidth=2;html=1;shape=mxgraph.flowchart.annotation_1;align=left;pointerEvents=1;fontFamily=Times New Roman;direction=west;" parent="1" vertex="1">
          <mxGeometry x="414" y="205" width="10" height="90" as="geometry" />
        </mxCell>
        <mxCell id="ftm3P9XVFiQLWpEqlPqK-30" value="&lt;font style=&quot;font-size: 15px;&quot;&gt;h&lt;/font&gt;&lt;sub&gt;11&lt;/sub&gt;" style="text;html=1;strokeColor=none;fillColor=none;align=center;verticalAlign=middle;whiteSpace=wrap;rounded=0;fontFamily=Times New Roman;" parent="1" vertex="1">
          <mxGeometry x="320" y="215" width="30" height="15" as="geometry" />
        </mxCell>
        <mxCell id="ftm3P9XVFiQLWpEqlPqK-33" value="" style="endArrow=none;dashed=1;html=1;dashPattern=1 3;strokeWidth=2;rounded=0;fontFamily=Times New Roman;" parent="1" edge="1">
          <mxGeometry width="50" height="50" relative="1" as="geometry">
            <mxPoint x="334.83000000000004" y="260" as="sourcePoint" />
            <mxPoint x="334.83000000000004" y="240" as="targetPoint" />
          </mxGeometry>
        </mxCell>
        <mxCell id="ftm3P9XVFiQLWpEqlPqK-34" value="&lt;font style=&quot;font-size: 15px;&quot;&gt;h&lt;/font&gt;&lt;sub&gt;M1&lt;/sub&gt;" style="text;html=1;strokeColor=none;fillColor=none;align=center;verticalAlign=middle;whiteSpace=wrap;rounded=0;fontFamily=Times New Roman;" parent="1" vertex="1">
          <mxGeometry x="305" y="265" width="60" height="30" as="geometry" />
        </mxCell>
        <mxCell id="ftm3P9XVFiQLWpEqlPqK-35" value="" style="endArrow=none;dashed=1;html=1;dashPattern=1 3;strokeWidth=2;rounded=0;fontFamily=Times New Roman;" parent="1" edge="1">
          <mxGeometry width="50" height="50" relative="1" as="geometry">
            <mxPoint x="350" y="222.26" as="sourcePoint" />
            <mxPoint x="390" y="222.26" as="targetPoint" />
          </mxGeometry>
        </mxCell>
        <mxCell id="ftm3P9XVFiQLWpEqlPqK-36" value="" style="endArrow=none;dashed=1;html=1;dashPattern=1 3;strokeWidth=2;rounded=0;fontFamily=Times New Roman;" parent="1" edge="1">
          <mxGeometry width="50" height="50" relative="1" as="geometry">
            <mxPoint x="350" y="240" as="sourcePoint" />
            <mxPoint x="380" y="260" as="targetPoint" />
          </mxGeometry>
        </mxCell>
        <mxCell id="ftm3P9XVFiQLWpEqlPqK-37" value="" style="endArrow=none;dashed=1;html=1;dashPattern=1 3;strokeWidth=2;rounded=0;fontFamily=Times New Roman;" parent="1" edge="1">
          <mxGeometry width="50" height="50" relative="1" as="geometry">
            <mxPoint x="350" y="279.76" as="sourcePoint" />
            <mxPoint x="390" y="279.76" as="targetPoint" />
          </mxGeometry>
        </mxCell>
        <mxCell id="ftm3P9XVFiQLWpEqlPqK-38" value="" style="endArrow=none;dashed=1;html=1;dashPattern=1 3;strokeWidth=2;rounded=0;fontFamily=Times New Roman;" parent="1" edge="1">
          <mxGeometry width="50" height="50" relative="1" as="geometry">
            <mxPoint x="400" y="260" as="sourcePoint" />
            <mxPoint x="400" y="240" as="targetPoint" />
          </mxGeometry>
        </mxCell>
        <mxCell id="ftm3P9XVFiQLWpEqlPqK-39" value="&lt;font style=&quot;font-size: 15px;&quot;&gt;h&lt;/font&gt;&lt;sub&gt;1N&lt;/sub&gt;" style="text;html=1;strokeColor=none;fillColor=none;align=center;verticalAlign=middle;whiteSpace=wrap;rounded=0;fontFamily=Times New Roman;" parent="1" vertex="1">
          <mxGeometry x="370" y="207.5" width="60" height="30" as="geometry" />
        </mxCell>
        <mxCell id="ftm3P9XVFiQLWpEqlPqK-40" value="&lt;font style=&quot;font-size: 15px;&quot;&gt;h&lt;/font&gt;&lt;sub&gt;MN&lt;/sub&gt;" style="text;html=1;strokeColor=none;fillColor=none;align=center;verticalAlign=middle;whiteSpace=wrap;rounded=0;fontFamily=Times New Roman;" parent="1" vertex="1">
          <mxGeometry x="370" y="265" width="60" height="30" as="geometry" />
        </mxCell>
        <mxCell id="ftm3P9XVFiQLWpEqlPqK-41" value="&lt;font style=&quot;font-size: 16px;&quot;&gt;H&lt;/font&gt;" style="text;html=1;strokeColor=none;fillColor=none;align=center;verticalAlign=middle;whiteSpace=wrap;rounded=0;fontFamily=Times New Roman;" parent="1" vertex="1">
          <mxGeometry x="335" y="329" width="60" height="30" as="geometry" />
        </mxCell>
        <mxCell id="ftm3P9XVFiQLWpEqlPqK-42" value="" style="endArrow=none;html=1;rounded=0;fontFamily=Times New Roman;" parent="1" edge="1">
          <mxGeometry width="50" height="50" relative="1" as="geometry">
            <mxPoint x="520" y="158.31" as="sourcePoint" />
            <mxPoint x="470" y="158.31" as="targetPoint" />
          </mxGeometry>
        </mxCell>
        <mxCell id="ftm3P9XVFiQLWpEqlPqK-43" value="" style="endArrow=none;html=1;rounded=0;fontFamily=Times New Roman;" parent="1" edge="1">
          <mxGeometry width="50" height="50" relative="1" as="geometry">
            <mxPoint x="470" y="158.31" as="sourcePoint" />
            <mxPoint x="470" y="148.31" as="targetPoint" />
          </mxGeometry>
        </mxCell>
        <mxCell id="ftm3P9XVFiQLWpEqlPqK-44" value="" style="triangle;whiteSpace=wrap;html=1;fontFamily=Times New Roman;direction=south;" parent="1" vertex="1">
          <mxGeometry x="460" y="128.31" width="20" height="20" as="geometry" />
        </mxCell>
        <mxCell id="ftm3P9XVFiQLWpEqlPqK-45" value="" style="endArrow=none;html=1;rounded=0;fontFamily=Times New Roman;" parent="1" edge="1">
          <mxGeometry width="50" height="50" relative="1" as="geometry">
            <mxPoint x="520" y="198.31" as="sourcePoint" />
            <mxPoint x="470" y="198.31" as="targetPoint" />
          </mxGeometry>
        </mxCell>
        <mxCell id="ftm3P9XVFiQLWpEqlPqK-46" value="" style="endArrow=none;html=1;rounded=0;fontFamily=Times New Roman;" parent="1" edge="1">
          <mxGeometry width="50" height="50" relative="1" as="geometry">
            <mxPoint x="470" y="198.31" as="sourcePoint" />
            <mxPoint x="470" y="188.31" as="targetPoint" />
          </mxGeometry>
        </mxCell>
        <mxCell id="ftm3P9XVFiQLWpEqlPqK-47" value="" style="triangle;whiteSpace=wrap;html=1;fontFamily=Times New Roman;direction=south;" parent="1" vertex="1">
          <mxGeometry x="460" y="168.31" width="20" height="20" as="geometry" />
        </mxCell>
        <mxCell id="ftm3P9XVFiQLWpEqlPqK-48" value="" style="endArrow=none;html=1;rounded=0;fontFamily=Times New Roman;" parent="1" edge="1">
          <mxGeometry width="50" height="50" relative="1" as="geometry">
            <mxPoint x="520" y="238.31" as="sourcePoint" />
            <mxPoint x="470" y="238.31" as="targetPoint" />
          </mxGeometry>
        </mxCell>
        <mxCell id="ftm3P9XVFiQLWpEqlPqK-49" value="" style="endArrow=none;html=1;rounded=0;fontFamily=Times New Roman;" parent="1" edge="1">
          <mxGeometry width="50" height="50" relative="1" as="geometry">
            <mxPoint x="470" y="238.31" as="sourcePoint" />
            <mxPoint x="470" y="228.31" as="targetPoint" />
          </mxGeometry>
        </mxCell>
        <mxCell id="ftm3P9XVFiQLWpEqlPqK-50" value="" style="triangle;whiteSpace=wrap;html=1;fontFamily=Times New Roman;direction=south;" parent="1" vertex="1">
          <mxGeometry x="460" y="208.31" width="20" height="20" as="geometry" />
        </mxCell>
        <mxCell id="ftm3P9XVFiQLWpEqlPqK-51" value="" style="endArrow=none;html=1;rounded=0;fontFamily=Times New Roman;" parent="1" edge="1">
          <mxGeometry width="50" height="50" relative="1" as="geometry">
            <mxPoint x="520" y="358.31" as="sourcePoint" />
            <mxPoint x="470" y="358.31" as="targetPoint" />
          </mxGeometry>
        </mxCell>
        <mxCell id="ftm3P9XVFiQLWpEqlPqK-52" value="" style="endArrow=none;html=1;rounded=0;fontFamily=Times New Roman;" parent="1" edge="1">
          <mxGeometry width="50" height="50" relative="1" as="geometry">
            <mxPoint x="470" y="358.31" as="sourcePoint" />
            <mxPoint x="470" y="348.31" as="targetPoint" />
          </mxGeometry>
        </mxCell>
        <mxCell id="ftm3P9XVFiQLWpEqlPqK-53" value="" style="triangle;whiteSpace=wrap;html=1;fontFamily=Times New Roman;direction=south;" parent="1" vertex="1">
          <mxGeometry x="460" y="328.31" width="20" height="20" as="geometry" />
        </mxCell>
        <mxCell id="ftm3P9XVFiQLWpEqlPqK-54" value="" style="endArrow=none;dashed=1;html=1;dashPattern=1 3;strokeWidth=2;rounded=0;fontFamily=Times New Roman;" parent="1" edge="1">
          <mxGeometry width="50" height="50" relative="1" as="geometry">
            <mxPoint x="490" y="320" as="sourcePoint" />
            <mxPoint x="490" y="280" as="targetPoint" />
          </mxGeometry>
        </mxCell>
        <mxCell id="ftm3P9XVFiQLWpEqlPqK-55" value="" style="endArrow=classic;html=1;rounded=0;fontFamily=Times New Roman;" parent="1" edge="1">
          <mxGeometry width="50" height="50" relative="1" as="geometry">
            <mxPoint x="570" y="160" as="sourcePoint" />
            <mxPoint x="620.0000000000001" y="160" as="targetPoint" />
          </mxGeometry>
        </mxCell>
        <mxCell id="ftm3P9XVFiQLWpEqlPqK-56" value="" style="endArrow=classic;html=1;rounded=0;fontFamily=Times New Roman;" parent="1" edge="1">
          <mxGeometry width="50" height="50" relative="1" as="geometry">
            <mxPoint x="570" y="200" as="sourcePoint" />
            <mxPoint x="620.0000000000001" y="200" as="targetPoint" />
          </mxGeometry>
        </mxCell>
        <mxCell id="ftm3P9XVFiQLWpEqlPqK-57" value="" style="endArrow=classic;html=1;rounded=0;fontFamily=Times New Roman;" parent="1" edge="1">
          <mxGeometry width="50" height="50" relative="1" as="geometry">
            <mxPoint x="570" y="240" as="sourcePoint" />
            <mxPoint x="620.0000000000001" y="240" as="targetPoint" />
          </mxGeometry>
        </mxCell>
        <mxCell id="ftm3P9XVFiQLWpEqlPqK-58" value="" style="endArrow=classic;html=1;rounded=0;fontFamily=Times New Roman;" parent="1" edge="1">
          <mxGeometry width="50" height="50" relative="1" as="geometry">
            <mxPoint x="570" y="359" as="sourcePoint" />
            <mxPoint x="620.0000000000001" y="359" as="targetPoint" />
          </mxGeometry>
        </mxCell>
        <mxCell id="ftm3P9XVFiQLWpEqlPqK-59" value="&lt;span style=&quot;font-size: 10px&quot;&gt;Y&lt;/span&gt;&lt;span style=&quot;font-size: 8.33333px&quot;&gt;&lt;sub&gt;1&lt;/sub&gt;&lt;/span&gt;" style="text;html=1;align=center;verticalAlign=middle;resizable=0;points=[];autosize=1;strokeColor=none;fillColor=none;fontFamily=Times New Roman;" parent="1" vertex="1">
          <mxGeometry x="590" y="140" width="30" height="20" as="geometry" />
        </mxCell>
        <mxCell id="ftm3P9XVFiQLWpEqlPqK-60" value="&lt;span style=&quot;font-size: 10px&quot;&gt;Y&lt;/span&gt;&lt;span style=&quot;font-size: 6.94444px&quot;&gt;&lt;sub&gt;2&lt;/sub&gt;&lt;/span&gt;" style="text;html=1;align=center;verticalAlign=middle;resizable=0;points=[];autosize=1;strokeColor=none;fillColor=none;fontFamily=Times New Roman;" parent="1" vertex="1">
          <mxGeometry x="590" y="180" width="30" height="20" as="geometry" />
        </mxCell>
        <mxCell id="ftm3P9XVFiQLWpEqlPqK-61" value="&lt;span style=&quot;font-size: 10px&quot;&gt;Y&lt;/span&gt;&lt;span style=&quot;font-size: 6.94444px&quot;&gt;&lt;sub&gt;3&lt;/sub&gt;&lt;/span&gt;" style="text;html=1;align=center;verticalAlign=middle;resizable=0;points=[];autosize=1;strokeColor=none;fillColor=none;fontFamily=Times New Roman;" parent="1" vertex="1">
          <mxGeometry x="590" y="220" width="30" height="20" as="geometry" />
        </mxCell>
        <mxCell id="ftm3P9XVFiQLWpEqlPqK-62" value="&lt;span style=&quot;font-size: 10px&quot;&gt;Y&lt;sub&gt;M&lt;/sub&gt;&lt;/span&gt;" style="text;html=1;align=center;verticalAlign=middle;resizable=0;points=[];autosize=1;strokeColor=none;fillColor=none;fontFamily=Times New Roman;" parent="1" vertex="1">
          <mxGeometry x="590" y="339" width="30" height="20" as="geometry" />
        </mxCell>
        <mxCell id="YV-DGhG2HE9uUPmdnLdM-1" value="&lt;font face=&quot;Times New Roman&quot;&gt;信号处理&lt;/font&gt;" style="text;html=1;strokeColor=none;fillColor=none;align=center;verticalAlign=middle;whiteSpace=wrap;rounded=0;fontSize=16;" vertex="1" parent="1">
          <mxGeometry x="162.5" y="235" width="45" height="30" as="geometry" />
        </mxCell>
        <mxCell id="YV-DGhG2HE9uUPmdnLdM-2" value="&lt;font face=&quot;Times New Roman&quot;&gt;信号处理&lt;/font&gt;" style="text;html=1;strokeColor=none;fillColor=none;align=center;verticalAlign=middle;whiteSpace=wrap;rounded=0;fontSize=16;" vertex="1" parent="1">
          <mxGeometry x="522.5" y="235" width="45" height="30" as="geometry" />
        </mxCell>
      </root>
    </mxGraphModel>
  </diagram>
</mxfile>
